# xmcd CD Database Entry
#
# Track frame offsets:
# 180
# 20039
# 39565
# 62478
# 82890
# 101563
# 116105
# 134369
# 148185
# 161981
# 181962
#
# Disc length: 2687 seconds
#
# Revision: 1
# Processed by: cddbd v1.4PL0 Copyright (c) Steve Scherf et al.
# Submitted via: tcd 2.0b
#
DISCID=9a0a7d0b
DTITLE=El Haragan y Cia./ En el corazón no hay nada
DYEAR=1900
DGENRE=
TTITLE0=Yo Pensaba Que
TTITLE1=En El Corazón No Hay Nada
TTITLE2=Otro Día
TTITLE3=Mujer de Hotel
TTITLE4=Injerto
TTITLE5=Gente Come Gente
TTITLE6=Sueños de la Ciudad
TTITLE7=J.C. Del Barrio
TTITLE8=Sobrevivi
TTITLE9=Aguja En La Ciudad
TTITLE10=Antagonismos
EXTD=
EXTT0=
EXTT1=
EXTT2=
EXTT3=
EXTT4=
EXTT5=
EXTT6=
EXTT7=
EXTT8=
EXTT9=
EXTT10=
PLAYORDER=
